<svg width="512" height="512" viewBox="0 0 512 512" fill="none" xmlns="http://www.w3.org/2000/svg">
<g clip-path="url(#clip0)">
<path d="M510.156 401.843L480.419 315.3C494.753 285.998 502.328 253.41 502.379 220.621C502.467 163.608 480.409 109.701 440.267 68.831C400.117 27.953 346.615 4.94196 289.615 4.03896C230.51 3.10496 174.954 25.587 133.187 67.353C92.913 107.626 70.575 160.719 69.868 217.455C30.174 247.341 6.74501 293.936 6.82201 343.705C6.85901 366.995 12.101 390.146 22.034 411.081L1.55101 470.689C-1.96999 480.936 0.602005 492.062 8.26401 499.724C13.656 505.117 20.765 507.988 28.076 507.988C31.152 507.988 34.264 507.48 37.299 506.437L96.908 485.954C117.843 495.887 140.994 501.129 164.284 501.166C164.368 501.166 164.448 501.166 164.532 501.166C215.042 501.164 261.992 477.131 291.769 436.464C322.756 435.648 353.415 428.147 381.132 414.588L467.676 444.326C471.282 445.565 474.98 446.169 478.635 446.169C487.323 446.169 495.771 442.757 502.18 436.347C511.284 427.242 514.34 414.021 510.156 401.843ZM164.53 470.69C164.465 470.69 164.396 470.69 164.331 470.69C143.717 470.659 123.246 465.577 105.135 455.995C101.411 454.026 97.039 453.685 93.057 455.053L31.934 476.056L52.937 414.934C54.305 410.951 53.965 406.579 51.995 402.856C42.413 384.744 37.331 364.274 37.299 343.659C37.248 310.5 50.147 279.071 72.704 255.537C80.072 300.453 101.479 341.843 134.661 374.435C167.598 406.786 209 427.384 253.672 434.118C230.084 457.367 198.288 470.69 164.53 470.69ZM480.628 414.797C479.761 415.664 478.733 415.9 477.577 415.502L384.929 383.666C383.32 383.113 381.646 382.839 379.978 382.839C377.519 382.839 375.069 383.434 372.852 384.608C346.399 398.602 316.507 406.024 286.405 406.07C286.306 406.07 286.216 406.07 286.117 406.07C185.254 406.07 101.941 324.136 100.343 223.297C99.538 172.512 118.856 124.783 154.737 88.902C190.618 53.021 238.355 33.71 289.133 34.51C390.069 36.111 472.059 119.578 471.903 220.573C471.856 250.675 464.435 280.568 450.442 307.019C448.472 310.742 448.132 315.114 449.5 319.097L481.335 411.745C481.732 412.905 481.494 413.932 480.628 414.797Z" fill="#EE9B00"/>
<path d="M376.892 139.512H195.332C186.916 139.512 180.094 146.335 180.094 154.75C180.094 163.166 186.917 169.988 195.332 169.988H376.892C385.308 169.988 392.13 163.165 392.13 154.75C392.13 146.335 385.308 139.512 376.892 139.512Z" fill="white"/>
<path d="M376.892 202.183H195.332C186.916 202.183 180.094 209.006 180.094 217.421C180.094 225.836 186.917 232.659 195.332 232.659H376.892C385.308 232.659 392.13 225.836 392.13 217.421C392.13 209.006 385.308 202.183 376.892 202.183Z" fill="white"/>
<path d="M307.004 264.852H195.331C186.915 264.852 180.093 271.675 180.093 280.09C180.093 288.506 186.916 295.328 195.331 295.328H307.003C315.419 295.328 322.241 288.505 322.241 280.09C322.241 271.675 315.42 264.852 307.004 264.852Z" fill="white"/>
</g>
<defs>
<clipPath id="clip0">
<rect width="511.999" height="511.999" fill="white"/>
</clipPath>
</defs>
</svg>
